<svg xmlns="http://www.w3.org/2000/svg" width="24" height="24" viewBox="0 0 24 24" fill="none" stroke="currentColor" stroke-width="2" stroke-linecap="round" stroke-linejoin="round" class="lucide lucide-layers text-sky-500" aria-hidden="true" style="fill: none !important; stroke: rgb(14, 165, 233) !important; stroke-width: 2px !important; stroke-linecap: round !important; stroke-linejoin: round !important;"><path d="M12.83 2.18a2 2 0 0 0-1.66 0L2.6 6.08a1 1 0 0 0 0 1.83l8.58 3.91a2 2 0 0 0 1.66 0l8.58-3.9a1 1 0 0 0 0-1.83z" style="fill: none !important; stroke: rgb(14, 165, 233) !important; stroke-width: 2px !important;"/><path d="M2 12a1 1 0 0 0 .58.91l8.6 3.91a2 2 0 0 0 1.65 0l8.58-3.9A1 1 0 0 0 22 12" style="fill: none !important; stroke: rgb(14, 165, 233) !important; stroke-width: 2px !important;"/><path d="M2 17a1 1 0 0 0 .58.91l8.6 3.91a2 2 0 0 0 1.65 0l8.58-3.9A1 1 0 0 0 22 17" style="fill: none !important; stroke: rgb(14, 165, 233) !important; stroke-width: 2px !important;"/></svg>